<mxfile host="app.diagrams.net" agent="Mozilla/5.0 (Windows NT 10.0; Win64; x64) AppleWebKit/537.36 (KHTML, like Gecko) Chrome/131.0.0.0 Safari/537.36" version="26.0.6">
  <diagram name="Page-1" id="Ga0ov6k-mcoBLKEvaiYf">
    <mxGraphModel dx="1050" dy="569" grid="1" gridSize="10" guides="1" tooltips="1" connect="1" arrows="1" fold="1" page="1" pageScale="1" pageWidth="827" pageHeight="1169" math="0" shadow="0">
      <root>
        <mxCell id="0" />
        <mxCell id="1" parent="0" />
        <mxCell id="LJdMYmKL5YpfGwO6rPSb-13" style="edgeStyle=orthogonalEdgeStyle;rounded=0;orthogonalLoop=1;jettySize=auto;html=1;exitX=0.5;exitY=1;exitDx=0;exitDy=0;entryX=0.5;entryY=0;entryDx=0;entryDy=0;fontStyle=1" parent="1" source="LJdMYmKL5YpfGwO6rPSb-1" target="LJdMYmKL5YpfGwO6rPSb-2" edge="1">
          <mxGeometry relative="1" as="geometry" />
        </mxCell>
        <mxCell id="LJdMYmKL5YpfGwO6rPSb-1" value="" style="ellipse;html=1;shape=endState;fillColor=#000000;strokeColor=#ff0000;fontStyle=1" parent="1" vertex="1">
          <mxGeometry x="80" y="40" width="30" height="30" as="geometry" />
        </mxCell>
        <mxCell id="LJdMYmKL5YpfGwO6rPSb-14" style="edgeStyle=orthogonalEdgeStyle;rounded=0;orthogonalLoop=1;jettySize=auto;html=1;entryX=0;entryY=0.5;entryDx=0;entryDy=0;fontStyle=1" parent="1" source="LJdMYmKL5YpfGwO6rPSb-2" target="LJdMYmKL5YpfGwO6rPSb-5" edge="1">
          <mxGeometry relative="1" as="geometry">
            <Array as="points">
              <mxPoint x="198" y="150" />
              <mxPoint x="198" y="90" />
              <mxPoint x="240" y="90" />
            </Array>
          </mxGeometry>
        </mxCell>
        <mxCell id="LJdMYmKL5YpfGwO6rPSb-15" style="edgeStyle=orthogonalEdgeStyle;rounded=0;orthogonalLoop=1;jettySize=auto;html=1;entryX=0;entryY=0.5;entryDx=0;entryDy=0;fontStyle=1" parent="1" source="LJdMYmKL5YpfGwO6rPSb-2" target="LJdMYmKL5YpfGwO6rPSb-4" edge="1">
          <mxGeometry relative="1" as="geometry" />
        </mxCell>
        <mxCell id="LJdMYmKL5YpfGwO6rPSb-2" value="Login" style="rounded=1;whiteSpace=wrap;html=1;fontStyle=1" parent="1" vertex="1">
          <mxGeometry x="35" y="120" width="120" height="60" as="geometry" />
        </mxCell>
        <mxCell id="CDbMwVaFng5L8FVXh4iG-4" style="edgeStyle=orthogonalEdgeStyle;rounded=0;orthogonalLoop=1;jettySize=auto;html=1;exitX=0.5;exitY=1;exitDx=0;exitDy=0;entryX=0.5;entryY=0;entryDx=0;entryDy=0;" edge="1" parent="1" source="LJdMYmKL5YpfGwO6rPSb-3" target="LJdMYmKL5YpfGwO6rPSb-7">
          <mxGeometry relative="1" as="geometry" />
        </mxCell>
        <mxCell id="LJdMYmKL5YpfGwO6rPSb-3" value="Register ID into Blockchain" style="rounded=1;whiteSpace=wrap;html=1;fontStyle=1" parent="1" vertex="1">
          <mxGeometry x="620" y="280" width="120" height="50" as="geometry" />
        </mxCell>
        <mxCell id="LJdMYmKL5YpfGwO6rPSb-4" value="Enter DOB" style="rounded=1;whiteSpace=wrap;html=1;fontStyle=1" parent="1" vertex="1">
          <mxGeometry x="240" y="210" width="120" height="60" as="geometry" />
        </mxCell>
        <mxCell id="LJdMYmKL5YpfGwO6rPSb-5" value="Enter ID" style="rounded=1;whiteSpace=wrap;html=1;fontStyle=1" parent="1" vertex="1">
          <mxGeometry x="240" y="60" width="120" height="60" as="geometry" />
        </mxCell>
        <mxCell id="LJdMYmKL5YpfGwO6rPSb-23" style="edgeStyle=orthogonalEdgeStyle;rounded=0;orthogonalLoop=1;jettySize=auto;html=1;exitX=0.5;exitY=1;exitDx=0;exitDy=0;entryX=0.5;entryY=1;entryDx=0;entryDy=0;fontStyle=1" parent="1" source="LJdMYmKL5YpfGwO6rPSb-6" target="LJdMYmKL5YpfGwO6rPSb-2" edge="1">
          <mxGeometry relative="1" as="geometry">
            <Array as="points">
              <mxPoint x="510" y="320" />
              <mxPoint x="95" y="320" />
            </Array>
          </mxGeometry>
        </mxCell>
        <mxCell id="LJdMYmKL5YpfGwO6rPSb-37" value="NO" style="edgeLabel;html=1;align=center;verticalAlign=middle;resizable=0;points=[];fontStyle=1" parent="LJdMYmKL5YpfGwO6rPSb-23" vertex="1" connectable="0">
          <mxGeometry x="-0.0204" y="1" relative="1" as="geometry">
            <mxPoint as="offset" />
          </mxGeometry>
        </mxCell>
        <mxCell id="CDbMwVaFng5L8FVXh4iG-7" style="edgeStyle=orthogonalEdgeStyle;rounded=0;orthogonalLoop=1;jettySize=auto;html=1;exitX=1;exitY=0.5;exitDx=0;exitDy=0;entryX=0;entryY=0.5;entryDx=0;entryDy=0;" edge="1" parent="1" source="LJdMYmKL5YpfGwO6rPSb-6" target="CDbMwVaFng5L8FVXh4iG-1">
          <mxGeometry relative="1" as="geometry" />
        </mxCell>
        <mxCell id="CDbMwVaFng5L8FVXh4iG-12" value="&lt;b&gt;YES&lt;/b&gt;" style="edgeLabel;html=1;align=center;verticalAlign=middle;resizable=0;points=[];" vertex="1" connectable="0" parent="CDbMwVaFng5L8FVXh4iG-7">
          <mxGeometry x="-0.2373" y="-2" relative="1" as="geometry">
            <mxPoint as="offset" />
          </mxGeometry>
        </mxCell>
        <mxCell id="LJdMYmKL5YpfGwO6rPSb-6" value="Verify?" style="rhombus;whiteSpace=wrap;html=1;fontStyle=1" parent="1" vertex="1">
          <mxGeometry x="470" y="120" width="80" height="80" as="geometry" />
        </mxCell>
        <mxCell id="CDbMwVaFng5L8FVXh4iG-5" style="edgeStyle=orthogonalEdgeStyle;rounded=0;orthogonalLoop=1;jettySize=auto;html=1;exitX=1;exitY=0.5;exitDx=0;exitDy=0;entryX=1;entryY=0.5;entryDx=0;entryDy=0;" edge="1" parent="1" source="LJdMYmKL5YpfGwO6rPSb-7" target="LJdMYmKL5YpfGwO6rPSb-3">
          <mxGeometry relative="1" as="geometry" />
        </mxCell>
        <mxCell id="CDbMwVaFng5L8FVXh4iG-6" value="&lt;b&gt;NO&lt;/b&gt;" style="edgeLabel;html=1;align=center;verticalAlign=middle;resizable=0;points=[];" vertex="1" connectable="0" parent="CDbMwVaFng5L8FVXh4iG-5">
          <mxGeometry x="-0.0133" relative="1" as="geometry">
            <mxPoint as="offset" />
          </mxGeometry>
        </mxCell>
        <mxCell id="CDbMwVaFng5L8FVXh4iG-9" style="edgeStyle=orthogonalEdgeStyle;rounded=0;orthogonalLoop=1;jettySize=auto;html=1;exitX=0.5;exitY=1;exitDx=0;exitDy=0;entryX=0.5;entryY=0;entryDx=0;entryDy=0;" edge="1" parent="1" source="LJdMYmKL5YpfGwO6rPSb-7" target="LJdMYmKL5YpfGwO6rPSb-10">
          <mxGeometry relative="1" as="geometry" />
        </mxCell>
        <mxCell id="CDbMwVaFng5L8FVXh4iG-11" value="&lt;b&gt;YES&lt;/b&gt;" style="edgeLabel;html=1;align=center;verticalAlign=middle;resizable=0;points=[];" vertex="1" connectable="0" parent="CDbMwVaFng5L8FVXh4iG-9">
          <mxGeometry x="-0.2867" y="3" relative="1" as="geometry">
            <mxPoint as="offset" />
          </mxGeometry>
        </mxCell>
        <mxCell id="LJdMYmKL5YpfGwO6rPSb-7" value="Matched with token?" style="rhombus;whiteSpace=wrap;html=1;fontStyle=1" parent="1" vertex="1">
          <mxGeometry x="612.5" y="410" width="135" height="130" as="geometry" />
        </mxCell>
        <mxCell id="CDbMwVaFng5L8FVXh4iG-10" style="edgeStyle=orthogonalEdgeStyle;rounded=0;orthogonalLoop=1;jettySize=auto;html=1;exitX=0.5;exitY=1;exitDx=0;exitDy=0;entryX=0.5;entryY=0;entryDx=0;entryDy=0;" edge="1" parent="1" source="LJdMYmKL5YpfGwO6rPSb-10" target="LJdMYmKL5YpfGwO6rPSb-11">
          <mxGeometry relative="1" as="geometry" />
        </mxCell>
        <mxCell id="LJdMYmKL5YpfGwO6rPSb-10" value="Cast Vote" style="rounded=1;whiteSpace=wrap;html=1;fontStyle=1" parent="1" vertex="1">
          <mxGeometry x="620" y="600" width="120" height="60" as="geometry" />
        </mxCell>
        <mxCell id="LJdMYmKL5YpfGwO6rPSb-11" value="" style="ellipse;html=1;shape=endState;fillColor=#000000;strokeColor=#ff0000;fontStyle=1" parent="1" vertex="1">
          <mxGeometry x="665" y="720" width="30" height="30" as="geometry" />
        </mxCell>
        <mxCell id="LJdMYmKL5YpfGwO6rPSb-16" value="" style="endArrow=none;html=1;rounded=0;fontStyle=1" parent="1" edge="1">
          <mxGeometry width="50" height="50" relative="1" as="geometry">
            <mxPoint x="400" y="240" as="sourcePoint" />
            <mxPoint x="400" y="80" as="targetPoint" />
          </mxGeometry>
        </mxCell>
        <mxCell id="LJdMYmKL5YpfGwO6rPSb-17" value="" style="endArrow=none;html=1;rounded=0;exitX=1;exitY=0.5;exitDx=0;exitDy=0;fontStyle=1" parent="1" source="LJdMYmKL5YpfGwO6rPSb-4" edge="1">
          <mxGeometry width="50" height="50" relative="1" as="geometry">
            <mxPoint x="430" y="300" as="sourcePoint" />
            <mxPoint x="400" y="240" as="targetPoint" />
          </mxGeometry>
        </mxCell>
        <mxCell id="LJdMYmKL5YpfGwO6rPSb-18" value="" style="endArrow=none;html=1;rounded=0;exitX=0.983;exitY=0.37;exitDx=0;exitDy=0;exitPerimeter=0;fontStyle=1" parent="1" edge="1">
          <mxGeometry width="50" height="50" relative="1" as="geometry">
            <mxPoint x="357.96000000000004" y="79.20000000000005" as="sourcePoint" />
            <mxPoint x="400" y="80" as="targetPoint" />
          </mxGeometry>
        </mxCell>
        <mxCell id="LJdMYmKL5YpfGwO6rPSb-19" value="" style="endArrow=classic;html=1;rounded=0;fontStyle=1" parent="1" target="LJdMYmKL5YpfGwO6rPSb-6" edge="1">
          <mxGeometry width="50" height="50" relative="1" as="geometry">
            <mxPoint x="400" y="160" as="sourcePoint" />
            <mxPoint x="480" y="250" as="targetPoint" />
          </mxGeometry>
        </mxCell>
        <mxCell id="CDbMwVaFng5L8FVXh4iG-1" value="&lt;b&gt;Token Generated&lt;/b&gt;" style="rounded=1;whiteSpace=wrap;html=1;" vertex="1" parent="1">
          <mxGeometry x="625" y="130" width="120" height="60" as="geometry" />
        </mxCell>
        <mxCell id="CDbMwVaFng5L8FVXh4iG-8" style="edgeStyle=orthogonalEdgeStyle;rounded=0;orthogonalLoop=1;jettySize=auto;html=1;exitX=0.5;exitY=1;exitDx=0;exitDy=0;" edge="1" parent="1" source="CDbMwVaFng5L8FVXh4iG-1">
          <mxGeometry relative="1" as="geometry">
            <mxPoint x="685" y="280" as="targetPoint" />
          </mxGeometry>
        </mxCell>
      </root>
    </mxGraphModel>
  </diagram>
</mxfile>
